<?xml version="1.0" encoding="UTF-8"?>
<svg id="Layer_2" data-name="Layer 2" xmlns="http://www.w3.org/2000/svg" viewBox="0 0 5668.76 835.72">
  <defs>
    <style>
      .cls-1 {
        fill: #d9d7d7;
      }
    </style>
  </defs>
  <g id="Extra">
    <g>
      <path class="cls-1" d="M968.6,676.14l44.05-17.61c27.59-23.13,19.41-40.53,22.99-70.24,10.45-86.89,10.85-200.5-.35-287.78-5.04-39.25-1.34-76.75-55.03-77.07-2.5-4.76,17.19-11.67,18.52-11.83,47-5.76,254.01,1.56,288.72,24.42,61.01,40.18,68.26,122.89,20.19,175.05l-71.52,35.81c12.45-.89,29.82,17.97,36.87,28.46,25.71,38.23,80.29,194.83,127.45,195.35,5.62.06,21.06-4.87,26.64-7.27,57.43-24.73,152.49-350.7,190.45-425.92,4.23-8.38,12.45-22.98,22.82-25.56,5.97,1.58,43.93,85.61,49.28,98.02,24.94,57.82,121.54,334.29,163.92,353.64,7.97,3.64,35.73,1.98,39.91,12.54h-218.14l55.42-33.32-.29-42.93-47.76-109.69-149.71.41-37.85,97.67c.76,20.68-5.72,54.95,12.63,69.32,7.66,6,32.67,8.03,36.68,18.53h-255.95c-14.19-44.67-77.33-196.76-114.37-216.71-6.93-3.73-51.26-14.48-57.92-12.3l-8.2,9.88c-6.34,12.83,6.07,42.14,6.19,46.32,1.2,42.25-14.1,139.2,29.66,160.29,6.92,3.34,34.02,2.4,37.02,12.53h-212.32ZM1186.74,223.46c-22.52-3.84-54.81,2.84-78.53,0v217.64h79.98c26.13,0,67.81-66.22,71.06-91.61,5.35-41.83-27.99-118.42-72.51-126.02ZM1544.48,478.82h129.43l-64.01-177.06-65.42,177.06Z"/>
      <path class="cls-1" d="M442.16,681.94v-11.59c51.9-.43,93.67-21.47,101.58-77.13,13.16-92.58,11.03-411.92.46-507.96-3.14-28.54-31.64-57.66-57.77-67.59-9.91-3.77-41.71-2.48-44.26-11.83L962.8,0l7.29,162.54c-13.4-25.43-21.87-50.15-38.46-74.63-19.21-28.35-85.59-70.48-118.63-70.48h-158.51v288.73l10.29,7.15c79.88.17,151-18.02,175.73-103.56,2.6-8.99-5.3-33.27,11.77-35.62v282.93c0,2.78-4.69,18.14-11.61,15.94-5.26-39.14-12.28-88.86-46.79-113.89-11.86-8.6-64.55-31.18-76.84-31.18h-62.53v245.2c0,9.54,13.01,51.95,19.43,62.45,13.34,21.81,57.19,35.73,82.38,34.77v11.59h-314.13Z"/>
      <path class="cls-1" d="M3341.95,84.17c-10.88,15.54-33.8,10.89-53.06,21.06-22.18,11.72-39.9,43.53-42.72,67.65-18.2,155.37,12.33,345.4.01,504.87-5.92,76.63-46.72,129.59-124.49,149.14-58.1,14.61-166.87,19.42-184.33-53.54l18.55-35.35c87.1-21.33,44.26,93.33,125.08,88.89,57.63-3.16,66.64-113.67,69.13-154.97,7.46-123.8,12.68-353.14-.33-472.93-2.57-23.67-17.94-70.84-38.49-84.72-19.66-13.28-47.69-13.42-60.2-30.09h290.85Z"/>
      <path class="cls-1" d="M4834.02,676.14c1.34-9.2,29.21-9.8,34.15-12.5,1.5-.82,23.16-23.05,23.84-24.62,14.61-33.91,13.28-294.78,8.84-344.4-3.25-36.35-13.75-70.24-55.18-71.18-1.68-5.54,12.59-11.44,15.61-11.84,133.41-17.59,457.09-8.12,303.25,205.22l-65.83,30.02c66.1,30.15,80.36,137.1,123.41,193.27l45.27,36.02h-113.43l-91.38-190.3c-25.63-31.83-44.24-34.24-83.13-38.95v182.81c0,2.26,25.82,31.94,29.85,33.99,6.45,3.28,34.58,3.31,37.05,12.44h-212.32ZM5049.25,223.46h-75.62v217.64h78.53c.31,0-1.14-5.07,1.98-5.83,100.44-24.43,78.15-199.04-4.89-211.81Z"/>
      <path class="cls-1" d="M2809.71,771.88v14.54c-172.08,1.31-344.33-1.71-516.44-.23-19.96.17-49.89-.2-75.62,0-30.56.24-72.16,6.04-104.33,6.24-710.54,4.43-1411.57-3.6-2113.32-7.74l.04-12.81h2809.66Z"/>
      <path class="cls-1" d="M4307.58,641.32c-30.69-9.83-42.63,15.14-63.52,22.84-179.27,66.02-357.59,2.46-357.85-206.78-.21-172.12,130.48-285.56,302.92-251.2,14.22,2.83,60.91,28.34,67.39,29.08,32.2,3.67,15.19-14.24,36.49-23.39l8.73,145.08c-20.25-.34-20.37-34.64-26.54-46.9-18.91-37.57-61.14-92.71-105.62-98.41-259.65-33.3-272.05,499.99-17.52,464.61,86.65-12.05,123.07-163.36,17.29-162.59l-4.3-5.8h203.58s-4.28,5.8-4.28,5.8c-20.2-7.18-56.78,13.99-56.78,36.26v91.41Z"/>
      <path class="cls-1" d="M1902.23,676.14l55.39-25.26c14.12-19.07,15.66-39.95,17.42-63.15,3.93-51.68,5.78-305.43-11.64-339.7-9.68-15.49-27.16-27.04-46.62-24.6l7.89-10.95,110.55.28,277.1,350.2v-290.18c0-.31-5.18,1.03-5.85-1.93-3.29-14.51-1.61-20.16-12.55-34.85l-39.75-18.32c10.57-9.1,131.56-9.07,130.88,1.45-31.62,5.79-52.94,24.61-57.97,58.23-16.94,113.14,14.58,267.73-.11,382.93-.65,5.1.36,15.86-7.49,16.13-14.96,4.05-105.53-124.69-121.56-144.41-59.95-73.7-120.94-146-181.3-219.66-3.46-4.23-18.19-27.07-18.53-33.66l-11.52-.1v316.3l18.2,57.17,54.52,24.08h-157.06Z"/>
      <path class="cls-1" d="M4761.31,211.85l5.8,110.25c-18.07-13.71-18.55-38.81-34.19-60.8-8.87-12.47-49.82-37.84-58.87-37.84h-139.61v201.68l4.36,4.35h58.17c17.91,0,48.5-28.77,53.63-45.71,2.37-7.83-5.41-28.64,5.95-26.83,8.08,7.18,7.24,108.95,5.95,126.3-.66,8.89-2.35,37.57-11.7,41.97,4.52-23.59-13.98-67.42-36.03-77.22-10.5-4.67-59.73-15.29-69.37-12.49l-7.84,7.83,5.73,158.16c14.79,93.37,197.33,83.05,234.5,6.87l24.23-65.71v133.48h-404.28c1.42-9.19,29.05-9.79,34.14-12.5,7.03-3.75,26.72-27.73,28.9-36.29,8.29-32.52,8.76-332.93.11-363.89-5.98-21.42-30.29-44.76-54.41-40.02-2.3-4.3,14.99-11.59,15.98-11.59h338.84Z"/>
      <path class="cls-1" d="M2784.97,211.85c2.02.38,10.75,9.94,18.93,5.82l-290.89,452.65c39.06-1.87,78.97,2.48,117.97.23,36.87-2.13,106.43-11.21,138.66-35.01,29.22-21.58,55.77-68.19,57.52-104.51h8.7s-8.71,145.11-8.71,145.11h-404.28l296.67-452.68h-161.42c-23.27,0-83.94,35.84-98.34,55.09l-25.25,60.96,5.8-127.66h344.66Z"/>
      <path class="cls-1" d="M5668.75,783.47c-141.88,6.73-284.2,1.22-426.24,2.73-44.64.47-101.77,5.91-147.81,6.26-591.63,4.44-1167-9.77-1756.86-5.98l-1.77-12.86c687.3-2.8,1376.28-18.7,2063.8-7.66,63.33,1.02,201.61-4.22,255.94,5.81,6.96,1.28,13.22,3.06,12.94,11.7Z"/>
      <path class="cls-1" d="M3362.31,676.14l45.56-24.19c80.26-131.65,119.9-288.12,179.33-427.72l12.54-8.72c6.01-.32,18.79,12.18,21.02,16.25,38.95,70.98,144.53,397.14,190.75,425.72l45.25,18.66h-218.14c3.07-11.66,30.93-9.57,37.05-12.5,47.87-22.95,4.81-101.36-10.74-134.71-1.71-3.66,1.2-11.35.09-13.67-1.51-3.15-7.4-.6-8.29-2.07-3.03-5.01-.7-20.87-10.76-22.99l-146.54.64-41.01,103.25c-4.08,23.16,2.1,56.37,23.94,69.54,5.32,3.21,30.43,4.08,31.19,12.51h-151.24ZM3509.19,478.82h130.88l.11-20.55-59.79-148.58-7.29-2.16-63.91,171.29Z"/>
      <path class="cls-1" d="M3553.48,85.11c20.31,5.91,23.83,55.72-6.14,60.22-63.95,9.6-54.68-77.92,6.14-60.22Z"/>
      <path class="cls-1" d="M3681.45,85.11c16.66,5.08,29.54,77.55-35.95,57.34-24.34-7.51-20.35-74.51,35.95-57.34Z"/>
      <path class="cls-1" d="M5389.55,574.58c.92.2-1.02,10.17,14.57,5.79l.16,21.56-10.46,16.03,26.25,29.18c-25.33,6.28-35.13-13.83-49.47-29.06l1.47,29.02h-31.96c13.02-21.7,13.21-50.48-.02-72.53,14.41,2.08,36.2-2.85,49.44,0ZM5382.73,602.75l-1.62-18.32-14.81-4.05v29.04s16.43-6.66,16.43-6.66Z"/>
    </g>
  </g>
</svg>